<svg width="21" height="21" viewBox="0 0 21 21" fill="none" xmlns="http://www.w3.org/2000/svg">
<g id="Frame">
<g id="Group">
<path id="Vector" d="M1.04947 10.1906C1.04947 8.9176 1.04947 7.6437 1.04947 6.37073C1.05136 3.24147 3.45804 0.799033 6.58636 0.779275C9.1671 0.76234 11.7488 0.769866 14.3295 0.777393C17.4833 0.786801 19.9003 3.15491 19.9342 6.30487C19.9624 8.93736 19.9577 11.5708 19.9342 14.2033C19.9078 17.2206 17.4927 19.6357 14.4744 19.6621C11.825 19.6856 9.17463 19.6837 6.52521 19.6621C3.47686 19.6376 1.0824 17.2234 1.05136 14.1656C1.03818 12.8409 1.04947 11.5162 1.04853 10.1906H1.04947ZM2.49744 10.2197H2.49932C2.49932 11.5793 2.4805 12.9397 2.50402 14.2992C2.53978 16.418 4.27564 18.1934 6.38314 18.2188C9.10219 18.2517 11.8222 18.2489 14.5412 18.2188C16.6468 18.1953 18.4373 16.4942 18.4806 14.4093C18.5379 11.6395 18.5361 8.8668 18.4806 6.09694C18.4373 3.933 16.6638 2.247 14.4989 2.231C11.8137 2.2103 9.12853 2.20748 6.44335 2.23288C4.24929 2.25358 2.50779 4.04684 2.49838 6.24466C2.49273 7.57031 2.49744 8.89502 2.49744 10.2207V10.2197Z" fill="#FAF8EB"/>
<path id="Vector_2" d="M15.5645 10.0676C15.6981 12.8017 13.5125 15.1416 10.689 15.2893C7.92477 15.4342 5.57736 13.2552 5.42306 10.4035C5.27441 7.66092 7.49669 5.27964 10.3268 5.14886C13.0816 5.02091 15.4261 7.22249 15.5645 10.0676ZM10.4811 6.57424C8.48176 6.58742 6.83716 8.24707 6.84656 10.2407C6.85597 12.2156 8.51751 13.8884 10.4575 13.8762C12.4794 13.8639 14.1485 12.2297 14.1485 10.2624C14.1485 8.23108 12.4879 6.56013 10.4811 6.5733V6.57424Z" fill="#FAF8EB"/>
<path id="Vector_3" d="M16.2861 3.69564C16.67 3.68341 17.0153 4.01647 17.02 4.40504C17.0247 4.78044 16.7302 5.09562 16.3529 5.1182C15.9455 5.14266 15.6181 4.84912 15.604 4.44738C15.5899 4.04281 15.8928 3.70787 16.2861 3.69564Z" fill="#FAF8EB"/>
</g>
</g>
</svg>
