<svg width="26" height="19" viewBox="0 0 26 19" fill="none" xmlns="http://www.w3.org/2000/svg">
<g clip-path="url(#clip0_427_3719)">
<path d="M11.8604 2C12.4597 2 13.06 2 13.6593 2C13.7412 2.02164 13.8221 2.05645 13.9058 2.0621C16.3944 2.23709 18.6684 3.03775 20.7627 4.38034C20.9076 4.47349 21.108 4.51488 21.283 4.51677C22.2107 4.52994 23.1384 4.52335 24.067 4.52335C24.5477 4.52335 25.0276 4.52335 25.6137 4.52335C24.8714 5.3306 24.2024 6.05787 23.5354 6.78327C26.2686 9.43551 26.0945 13.3033 24.1244 15.6244C23.1167 16.8118 21.8522 17.5682 20.3168 17.8316C18.2469 18.1863 16.4235 17.6181 14.826 16.2472C14.1335 16.9962 13.4617 17.7234 12.7787 18.462C12.0721 17.6943 11.4069 16.9726 10.7361 16.2444C10.5893 16.362 10.4793 16.4505 10.3682 16.5389C6.73939 19.4198 1.33704 17.6256 0.161922 13.1462C0.0791276 12.831 0.0226767 12.5093 -0.046946 12.1903C-0.046946 11.7622 -0.046946 11.3341 -0.046946 10.9061C-0.0206023 10.7988 0.0151501 10.6925 0.0311445 10.5833C0.186384 9.48538 0.612588 8.50031 1.28906 7.62627C1.51392 7.33649 1.76889 7.07117 2.0201 6.78233C1.34833 6.04847 0.687855 5.32778 -0.0488281 4.52429C0.209905 4.52429 0.362323 4.52429 0.51474 4.52429C1.71338 4.52429 2.91296 4.54029 4.1116 4.513C4.40514 4.50642 4.7335 4.41892 4.98188 4.26556C6.41573 3.38022 7.94273 2.72539 9.58827 2.36881C10.3372 2.20605 11.1021 2.12137 11.8595 2.00094L11.8604 2ZM19.1868 7.21135C16.7895 7.21135 14.857 9.14197 14.857 11.5345C14.857 13.9187 16.8046 15.8643 19.1906 15.8634C21.5765 15.8634 23.5213 13.9158 23.5203 11.5308C23.5194 9.13915 21.585 7.21135 19.1868 7.21135ZM10.6994 11.5901C10.7323 9.21724 8.82901 7.2471 6.46936 7.21229C4.04104 7.1756 2.06432 9.07517 2.03233 11.4762C2.00128 13.8547 3.93096 15.8342 6.31224 15.8643C8.70011 15.8954 10.6665 13.9789 10.6994 11.5901ZM7.98318 5.05775C9.2665 5.59404 10.3127 6.28932 11.1576 7.26028C12.0204 8.25099 12.5736 9.38847 12.7693 10.716C13.2689 7.93204 15.0038 6.18489 17.5629 5.04929C14.348 3.81019 11.2253 3.80266 7.98224 5.05869L7.98318 5.05775Z" fill="#170000" fill-opacity="0.5"/>
<path d="M16.9121 11.437C16.914 10.1706 17.9282 9.16674 19.2012 9.17239C20.4713 9.17803 21.4705 10.1913 21.4602 11.4643C21.4498 12.709 20.4403 13.7129 19.1955 13.7167C17.9358 13.7204 16.9112 12.6977 16.9121 11.437Z" fill="#170000" fill-opacity="0.5"/>
<path d="M6.36674 9.17236C7.64064 9.17142 8.64829 10.1791 8.64265 11.4473C8.637 12.7128 7.6143 13.7251 6.35074 13.7148C5.10976 13.7044 4.09929 12.694 4.08895 11.453C4.0786 10.1979 5.1013 9.17425 6.36768 9.17236H6.36674Z" fill="#170000" fill-opacity="0.5"/>
</g>
<defs>
<clipPath id="clip0_427_3719">
<rect width="26" height="19" fill="white"/>
</clipPath>
</defs>
</svg>
