<svg width="21" height="17" viewBox="0 0 21 17" fill="none" xmlns="http://www.w3.org/2000/svg">
<g id="Frame" clip-path="url(#clip0_3469_8071)">
<path id="Vector" d="M20.3028 5.68367V11.5226C20.29 11.6082 20.2698 11.6929 20.2643 11.7785C20.2185 12.4606 20.1286 13.1352 19.9004 13.7825C19.6024 14.6283 19.0744 15.2596 18.2622 15.6303C17.5893 15.937 16.877 16.0603 16.1519 16.0989C15.4222 16.1384 14.6906 16.1468 13.9591 16.1468C10.9743 16.1497 7.9894 16.1515 5.00455 16.1365C4.086 16.1318 3.17752 16.0104 2.31581 15.6538C1.60993 15.3622 1.04614 14.8983 0.677621 14.2021C0.281597 13.4541 0.122087 12.6384 0.103752 11.8048C0.0652499 10.1094 0.0625 8.41401 0.0625 6.71766C0.0625 6.04966 0.0936684 5.38072 0.140421 4.7146C0.178007 4.17361 0.310932 3.6505 0.577699 3.17255C1.00947 2.39729 1.71902 2.04165 2.5184 1.83279C3.37279 1.60981 4.24734 1.54959 5.12464 1.54865C8.37993 1.54395 11.6352 1.54489 14.8905 1.54395C15.8274 1.54395 16.7606 1.58158 17.6801 1.79139C18.2714 1.92593 18.8297 2.13856 19.2871 2.56382C19.861 3.09823 20.0828 3.80386 20.1855 4.5603C20.2359 4.93288 20.2643 5.30922 20.3028 5.68367ZM7.85006 8.7499C7.85006 9.47247 7.84823 10.195 7.85006 10.9176C7.85189 11.5687 8.33317 11.8688 8.89696 11.5677C10.251 10.8452 11.6022 10.1188 12.9562 9.3972C13.2138 9.25983 13.3953 9.07072 13.3981 8.75836C13.4017 8.43753 13.2211 8.24184 12.9544 8.10071C11.604 7.38567 10.2574 6.66498 8.90796 5.94805C8.33317 5.64322 7.85098 5.94147 7.84914 6.60194C7.84731 7.31793 7.85006 8.03391 7.85006 8.7499Z" fill="#FAF8EB"/>
</g>
<defs>
<clipPath id="clip0_3469_8071">
<rect width="21" height="16" fill="white" transform="translate(0 0.5)"/>
</clipPath>
</defs>
</svg>
